<svg xmlns="http://www.w3.org/2000/svg" viewBox="0 0 512 512">
  <defs>
    <linearGradient id="gradient" x1="0%" y1="0%" x2="100%" y2="100%">
      <stop offset="0%" style="stop-color:#10b981;stop-opacity:1" />
      <stop offset="100%" style="stop-color:#059669;stop-opacity:1" />
    </linearGradient>
  </defs>
  <rect width="512" height="512" rx="96" fill="url(#gradient)"/>
  <g fill="white" transform="translate(96, 96)">
    <!-- Camera body -->
    <path d="M64 48h32l16-24a12 12 0 0110-6h76a12 12 0 0110 6l16 24h32a24 24 0 0124 24v144a24 24 0 01-24 24H64a24 24 0 01-24-24V72a24 24 0 0124-24z"/>
    <!-- Camera lens -->
    <circle cx="160" cy="144" r="52" fill="#10b981"/>
    <circle cx="160" cy="144" r="36" fill="white"/>
    <!-- Location marker -->
    <path d="M160 108c-22 0-40 18-40 40 0 32 40 64 40 64s40-32 40-64c0-22-18-40-40-40z" fill="white" opacity="0.95"/>
    <circle cx="160" cy="148" r="14" fill="#10b981"/>
  </g>
</svg>
